#!OML:ASF E:/inclinewalkrobotboard/Project1/Captureday1/Session1/subject1.ASF
:FULLY-SPECIFIED
:DEGREES
13
root 0 0 0 -1.2263730959376904 -5.775270503979221 -5.256945497655635
lowerback 10.928125605085434 2.315238334462216 5.097101793346624
upperback -0.7547751020542793 3.726951415286382 1.1090615846700425
thorax -6.8641254883743965 1.7152014495785266 -2.2381917601164223
lowerneck -14.29482662742545 -2.11368637448727 0.06017842771207704
upperneck 19.29020798178544 -2.506607980648113 -1.5958944516962852
head 8.448826664201487 -1.2817474132169817 -0.864023473968428
rclavicle -4.547800495462479E-16 -3.560213947374697E-16
rhumerus -21.519055331934116 -13.008095530801139 -73.61931130060161
rradius 33.8641263308325
rwrist 7.341189802604899
rhand -20.33667464370213 10.331947957890614
rfingers 7.125020000000001
rthumb 6.006973236314065 -19.568262396969605
lclavicle -6.255647573777106E-16 -2.8844333862772937E-16
lhumerus -28.56375359099282 -0.3235868904032919 79.85178883220772
lradius 31.06384173514651
lwrist 3.348782551554517
lhand -28.121727925233518 16.567455102579036
lfingers 7.125020000000002
lthumb -1.5065635419216739 46.511268999962226
rfemur -13.626361406758837 4.1980345144239966 25.680362661855114
rtibia 41.644266238661515
rfoot -7.974422178646649 -6.736481227069704
rtoes 2.869743260183946
lfemur -14.36126589743317 -1.2338321766248024 -17.71871312737048
ltibia 36.71526482949971
lfoot -7.066658709769209 -2.9005958960837743
ltoes -4.774132237905025
14
root 0 0 0 -0.7318770163180213 -5.706175575011228 -4.379665828066835
lowerback 11.102854219643891 2.2579558580647188 4.571548701801596
upperback -1.3282074031505888 3.562805427467188 0.814928641526251
thorax -7.588135788754024 1.6371372114249791 -2.2371543266600655
lowerneck -13.079290717557896 -1.5239260423373109 0.7915140310686599
upperneck 19.089812241846285 -1.610501358774946 -2.6574457350056133
head 8.174660661725195 -0.8980864996500719 -1.228080608658194
rclavicle -3.9011028102011744E-16 -4.713807721812593E-16
rhumerus -16.109344180847266 -9.342130306145478 -70.44086564133893
rradius 38.906680181578935
rwrist 9.65468140791304
rhand -22.15628971990564 1.7750612718300527
rfingers 7.1250199999999975
rthumb 4.238778967407617 -28.20559982904608
lclavicle -7.135725424110054E-16 -3.650590273816275E-16
lhumerus -22.531547864550532 -2.082120242666847 75.89949824213912
lradius 35.78221899075898
lwrist 0.5443604767859203
lhand -30.175094561053797 6.485278904524347
lfingers 7.125019999999999
lthumb -3.4853395402777414 36.45558376191196
rfemur -16.608663493580373 3.5426698893329642 24.218349311135196
rtibia 43.47856949530085
rfoot -7.713402389336213 -7.509777263962915
rtoes 1.8459698941047622
lfemur -13.694535876366448 -1.530023759301264 -18.20139692245933
ltibia 34.46851588674302
lfoot -8.045045179911405 -2.18860434395366
ltoes -4.503603392689869
15
root 0 0 0 -0.20806733777874653 -5.219014691050643 -2.8473544598494906
lowerback 11.274356590366274 1.9473446684156934 3.3488026232884502
upperback -1.9486043610940884 2.9889022661135956 0.4844538170429993
thorax -8.371162656096516 1.3677652443955706 -1.8285872098992764
lowerneck -11.72651945724223 -0.8368366372327856 1.5264288161195538
upperneck 18.870791830388292 -0.5611814321914823 -3.842143665707102
head 7.874368285982251 -0.4579934744014713 -1.6123468786908721
rclavicle -2.4242902963460343E-16 -6.278466788405192E-16
rhumerus -8.264256817198788 -4.02176713600066 -65.83748631972547
rradius 46.2080723558183
rwrist 13.006246836806124
rhand -24.79216358033303 -10.622734596365664
rfingers 7.125019999999992
rthumb 1.6793397279740092 -40.71402042396144
lclavicle -8.047690427100657E-16 -4.375875424603004E-16
lhumerus -13.176079880424355 -4.824633591891805 69.7752980115545
lradius 43.09848958260038
lwrist -3.795640972190252
lhand -33.359345756752205 -9.116057175654898
lfingers 7.125019999999995
lthumb -6.549847518526891 20.86991589194188
rfemur -20.173242760301783 2.7744360408388262 22.475622366803496
rtibia 45.58377035373674
rfoot -7.415651389268682 -8.436212980308685
rtoes 0.6072297960878688
lfemur -12.11578239195908 -2.040332137744776 -19.178425940856073
ltibia 30.637359881580807
lfoot -9.65071316404099 -1.1160999616468072
ltoes -4.101119285985378
16
root 0 0 0 0.20296427310439924 -4.25984393911882 -0.7635667292043522
lowerback 11.395072841673485 1.3399462167499745 1.428999544296207
upperback -2.4476390333710856 1.9676074207288297 0.20007054788995204
thorax -9.005136044482564 0.8908546347371789 -0.9073247365256075
lowerneck -10.59474961660677 -0.21000778428345757 2.0449616395405674
upperneck 18.64939714952781 0.4022602270470772 -4.817833075328741
head 7.609782560475695 -0.048678930188029934 -1.900912858168538
rclavicle -3.0694710711178865E-17 -7.375242792081442E-16
rhumerus -1.6598652974579409 0.4898300429376956 -61.998139041490255
rradius 52.317270923829255
rwrist 15.797223392464769
rhand -27.000130401487468 -20.98924591191663
rfingers 7.125019999999989
rthumb -0.45017707474301627 -51.170394850803156
lclavicle -8.416241191698629E-16 -3.929896761286142E-16
lhumerus -3.9784193589576695 -7.534480832661972 63.742702555735264
lradius 50.277371052335845
lwrist -8.039380298182738
lhand -36.48409493922894 -24.386243942849354
lfingers 7.125019999999989
lthumb -9.54202459476844 5.539020712676869
rfemur -23.675590834410855 2.0270100977149603 20.770572857640005
rtibia 47.675448054652314
rfoot -7.0478504798103145 -9.313403705331108
rtoes -0.5557750173934151
lfemur -9.813397059640709 -2.557929363119902 -20.431885116894495
ltibia 26.732956751226098
lfoot -11.271950419000909 -0.2273373520241373
ltoes -3.802694896279808
